<?xml version="1.0" encoding="utf-8"?>
<!-- Generator: Adobe Illustrator 25.2.3, SVG Export Plug-In . SVG Version: 6.00 Build 0)  -->
<svg version="1.1" id="Слой_1" xmlns="http://www.w3.org/2000/svg" xmlns:xlink="http://www.w3.org/1999/xlink" x="0px" y="0px"
	 viewBox="0 0 44 44" style="enable-background:new 0 0 44 44;" xml:space="preserve">
<style type="text/css">
	.st0{stroke:#FFFFFF;stroke-width:0.6;stroke-miterlimit:10;}
	.st1{fill:#FF0000;}
</style>
<g id="Слой_2_1_">
	<path d="M34.1,44H9.9C4.4,44,0,39.6,0,34.1V9.9C0,4.4,4.4,0,9.9,0h24.2C39.6,0,44,4.4,44,9.9v24.2C44,39.6,39.6,44,34.1,44z"/>
	<path id="Layer_2_" class="st0" d="M29.3,5c-1.1-0.5-2.4-0.9-3.8-1.1l-1.8-0.2l-2.2,0.1c-1-0.1-2,0-3,0.3c-0.9,0.3-2,0.8-3.2,1.5
		C14.5,6.2,13.6,7,12.8,8c-0.4,0.5-0.7,1-0.9,1.4c-0.3,0.5-0.6,1.1-0.9,2c-0.6,1.7-0.9,3.7-1,5.8c0,0.1-0.4,0.5-1.1,1.2
		c-0.7,0.7-1.1,1.1-1.1,1.2l0.9-0.1l1-0.2C9.6,21.6,9,23.5,8,24.9c-0.5,0.7-1,1.2-1.4,1.5c0.9,0,1.6-0.1,2.2-0.4
		c0.3-0.2,0.6-0.3,0.7-0.5c-0.2,0.6-0.7,1.2-1.7,2l-1.2,0.9c0.8,0.1,1.6,0.1,2.3-0.1s1.4-0.5,1.9-0.9c0.2,1.4,0.6,2.7,1,3.9
		c0.6,1.6,1.3,2.7,2.1,3.3c0.1,0.1,0.1,0,0.1-0.3l-0.1-0.6l0.6,0.7c0.5,0.5,1,0.9,1.7,1.1l0.8,0.7l0.9,1.1c1,1.1,1.8,2,2.4,2.4
		c0.7,0.5,1.3,0.8,1.9,0.8s1.3-0.3,2.1-1l1.6-1.4L27,37l1.4-1.5c0.6-0.3,1.1-0.7,1.6-1.3c0.3-0.5,0.5-0.7,0.5-0.7c0,0.1,0,0.3,0,0.6
		c-0.1,0.4-0.1,0.6-0.1,0.8c0.6-0.4,1.1-0.9,1.5-1.5l0.4-0.8l0.2,0.5c0,0.2,0.1,0.4,0.2,0.5c0.4-0.6,0.7-1.3,1.2-2.2
		c0.8-1.7,1.3-3.2,1.4-4.4c0.1-1.4,0.1-2.5-0.1-3.5c-0.2-0.9-0.4-1.8-0.5-2.5c0.4,0.6,1,1.1,1.6,1.6c0.6,0.4,0.9,0.5,0.9,0.3
		l-1.6-4.1c-0.4-1.1-0.6-2.3-0.7-3.6c-0.3-1.8-0.5-3-0.6-3.6c-0.3-1-0.7-2-1.2-3c-0.4-0.8-0.9-1.4-1.4-1.9C31.1,6,30.2,5.5,29.3,5z"
		/>
	<polygon class="st1" points="24.4,17.4 26.9,17.4 26.9,18.6 28.2,18.6 28.2,23.6 26.9,23.6 26.9,24.8 25.7,24.8 25.7,26 24.4,26 
		24.4,27.3 23.3,27.3 23.3,28.5 22,28.5 22,27.4 20.7,27.4 20.7,26.1 19.6,26.1 19.6,24.9 18.2,24.9 18.2,23.6 17,23.6 17,18.6 
		18.1,18.6 18.1,17.4 20.7,17.4 20.7,18.5 22.1,18.5 22.1,19.6 23.2,19.6 23.2,18.6 24.5,18.6 	"/>
</g>
</svg>
