<?xml version="1.0" encoding="utf-8"?>
<!-- Generator: Adobe Illustrator 25.2.3, SVG Export Plug-In . SVG Version: 6.00 Build 0)  -->
<svg version="1.1" xmlns="http://www.w3.org/2000/svg" xmlns:xlink="http://www.w3.org/1999/xlink" x="0px" y="0px"
	 viewBox="0 0 216 44" style="enable-background:new 0 0 216 44;" xml:space="preserve">
<style type="text/css">
	.st0{display:none;}
	.st1{display:inline;fill:none;}
	.st2{display:inline;fill-rule:evenodd;clip-rule:evenodd;fill:#18C8CA;}
	.st3{stroke:#FFFFFF;stroke-width:0.6;stroke-miterlimit:10;}
	.st4{fill:#FF0000;}
	.st5{fill:#FFFFFF;}
</style>
<g id="Слой_1" class="st0">
	<path class="st1" d="M0,0"/>
	<path class="st2" d="M53.7,34.7V9.3h5v20.9h11.1v4.5L53.7,34.7L53.7,34.7z M81,35c-5.5,0-9.2-3.8-9.2-9s3.7-9,9.2-9
		c5.4,0,9.1,3.6,9.1,9C90.2,31.3,86.4,35,81,35z M81,30.8c2.5,0,4.4-2,4.4-4.8s-1.9-4.8-4.4-4.8c-2.7,0-4.5,2.1-4.5,4.8
		C76.6,28.7,78.4,30.8,81,30.8z M98.2,35c-3,0-4.9-1.9-4.9-5.8v-8.1h-2v-3.9h2v-5.7L98,11v6.2h4.7v3.9H98v7.4c0,1.5,0.4,2.3,1.5,2.3
		c0.6,0,1.4-0.2,2.2-0.6l1.2,3.8C101.7,34.5,100.6,35,98.2,35L98.2,35z M111.3,35c-3,0-4.9-1.9-4.9-5.8v-8.1h-2v-3.9h2v-5.7L111,11
		v6.2h4.7v3.9H111v7.4c0,1.5,0.4,2.3,1.5,2.3c0.6,0,1.4-0.2,2.2-0.6l1.2,3.8C114.7,34.5,113.6,35,111.3,35L111.3,35z M121.5,14.8
		c-1.7,0-2.9-1.3-2.9-2.9c0-1.6,1.2-2.9,2.9-2.9c1.7,0,2.9,1.3,2.9,2.9C124.5,13.6,123.2,14.8,121.5,14.8z M119.2,34.7V17.2h4.6
		v17.5H119.2z M143.6,25.8c0,0.6-0.1,1.4-0.1,1.7h-12.1c0.6,2.1,2.2,3.4,4.6,3.4c1.9,0,3.3-0.8,4.2-2l3,2.8
		c-1.4,1.9-3.7,3.3-7.5,3.3c-5.3,0-9-3.6-9-9.1c0-5.3,3.6-9,8.7-9C140.2,17,143.6,20.7,143.6,25.8L143.6,25.8z M135.3,21
		c-1.9,0-3.4,1.1-3.9,3.1h7.6C138.5,22.3,137.3,21,135.3,21L135.3,21z M0,0"/>
</g>
<g id="Слой_2">
	<path d="M38.3,44H5.7C2.6,44,0,41.4,0,38.3V5.7C0,2.6,2.6,0,5.7,0h32.6C41.4,0,44,2.6,44,5.7v32.6C44,41.4,41.4,44,38.3,44z"/>
	<path id="Layer_2_" class="st3" d="M29.3,5c-1.1-0.5-2.4-0.9-3.8-1.1l-1.8-0.2l-2.2,0.1c-1-0.1-2,0-3,0.3c-0.9,0.3-2,0.8-3.2,1.5
		C14.5,6.2,13.6,7,12.8,8c-0.4,0.5-0.7,1-0.9,1.4c-0.3,0.5-0.6,1.1-0.9,2c-0.6,1.7-0.9,3.7-1,5.8c0,0.1-0.4,0.5-1.1,1.2
		c-0.7,0.7-1.1,1.1-1.1,1.2l0.9-0.1l1-0.2C9.6,21.6,9,23.5,8,24.9c-0.5,0.7-1,1.2-1.4,1.5c0.9,0,1.6-0.1,2.2-0.4
		c0.3-0.2,0.6-0.3,0.7-0.5c-0.2,0.6-0.7,1.2-1.7,2l-1.2,0.9c0.8,0.1,1.6,0.1,2.3-0.1c0.7-0.2,1.4-0.5,1.9-0.9c0.2,1.4,0.6,2.7,1,3.9
		c0.6,1.6,1.3,2.7,2.1,3.3c0.1,0.1,0.1,0,0.1-0.3l-0.1-0.6l0.6,0.7c0.5,0.5,1,0.9,1.7,1.1l0.8,0.7l0.9,1.1c1,1.1,1.8,2,2.4,2.4
		c0.7,0.5,1.3,0.8,1.9,0.8c0.6,0,1.3-0.3,2.1-1l1.6-1.4l1.1-1.1l1.4-1.5c0.6-0.3,1.1-0.7,1.6-1.3c0.3-0.5,0.5-0.7,0.5-0.7
		c0,0.1,0,0.3,0,0.6c-0.1,0.4-0.1,0.6-0.1,0.8c0.6-0.4,1.1-0.9,1.5-1.5l0.4-0.8l0.2,0.5c0,0.2,0.1,0.4,0.2,0.5
		c0.4-0.6,0.7-1.3,1.2-2.2c0.8-1.7,1.3-3.2,1.4-4.4c0.1-1.4,0.1-2.5-0.1-3.5c-0.2-0.9-0.4-1.8-0.5-2.5c0.4,0.6,1,1.1,1.6,1.6
		c0.6,0.4,0.9,0.5,0.9,0.3l-1.6-4.1c-0.4-1.1-0.6-2.3-0.7-3.6c-0.3-1.8-0.5-3-0.6-3.6c-0.3-1-0.7-2-1.2-3c-0.4-0.8-0.9-1.4-1.4-1.9
		C31.1,6,30.2,5.5,29.3,5z"/>
	<polygon class="st4" points="24.4,17.4 26.9,17.4 26.9,18.6 28.2,18.6 28.2,23.6 26.9,23.6 26.9,24.8 25.7,24.8 25.7,26 24.4,26 
		24.4,27.3 23.3,27.3 23.3,28.5 22,28.5 22,27.4 20.7,27.4 20.7,26.1 19.6,26.1 19.6,24.9 18.2,24.9 18.2,23.6 17,23.6 17,18.6 
		18.1,18.6 18.1,17.4 20.7,17.4 20.7,18.5 22.1,18.5 22.1,19.6 23.2,19.6 23.2,18.6 24.5,18.6 	"/>
	<g>
		<path class="st5" d="M51.8,25.6V10.3H57v15c0,3.8,1.9,6.6,5.4,6.6c3.2,0,5.5-2.5,5.5-6.6v-15H73v15.4c0,6.8-4,11.2-10.7,11.2
			C56.1,36.8,51.8,32.8,51.8,25.6z"/>
		<path class="st5" d="M77.9,18.4h4.8v2.3h0.1c1.4-1.7,3.5-2.6,5.8-2.6c3.8,0,6.5,2.1,6.5,7.6v10.7h-4.8V27c0-3.4-1.2-4.5-3.5-4.5
			c-2.4,0-4.1,1.7-4.1,4.9v9h-4.8V18.4z"/>
		<path class="st5" d="M98.6,27.5c0-5.5,3.7-9.3,8.5-9.3c2.2,0,4.1,0.8,5.5,2.4h0.1V9.3h4.8v27.2h-4.6v-2.2h0
			c-1.3,1.6-3.1,2.5-5.6,2.5C102.2,36.8,98.6,33.1,98.6,27.5z M112.8,27.6c0-2.9-2-5.1-4.7-5.1c-2.6,0-4.6,2-4.6,5.1
			c0,2.9,1.9,4.9,4.6,4.9C110.8,32.5,112.8,30.5,112.8,27.6z"/>
		<path class="st5" d="M138.9,29h-12.7c0.6,2.2,2.3,3.5,4.8,3.5c2,0,3.4-0.8,4.4-2l3.1,2.9c-1.5,2-3.8,3.4-7.9,3.4
			c-5.5,0-9.5-3.7-9.5-9.4c0-5.5,3.8-9.3,9.2-9.3c5.1,0,8.6,3.8,8.6,9.1C139.1,27.9,139,28.8,138.9,29z M126.3,25.6h7.9
			c-0.5-1.9-1.8-3.2-3.9-3.2C128.4,22.4,126.9,23.5,126.3,25.6z"/>
		<path class="st5" d="M142.8,18.4h4.8v2.6h0.1c1.4-1.8,3.3-2.9,5.4-2.9h0.4v5.3c-0.5,0-1,0-1.3,0c-3,0-4.6,2-4.6,4.7v8.3h-4.8V18.4
			z"/>
		<path class="st5" d="M161.2,34.3L161.2,34.3l-0.1,2.2h-4.6V9.3h4.8v11.2h0c1.4-1.6,3.2-2.3,5.5-2.3c4.9,0,8.5,3.9,8.5,9.3
			c0,5.6-3.7,9.3-8.7,9.3C164.3,36.8,162.5,36,161.2,34.3z M170.5,27.6c0-3.1-2.1-5.1-4.7-5.1c-2.8,0-4.7,2.1-4.7,5.1
			c0,3,2.1,4.9,4.7,4.9C168.6,32.5,170.5,30.4,170.5,27.6z"/>
		<path class="st5" d="M178.2,27.5c0-5.4,3.8-9.3,9.6-9.3c5.6,0,9.6,3.8,9.6,9.3c0,5.5-4,9.3-9.6,9.3
			C182.1,36.8,178.2,32.9,178.2,27.5z M192.5,27.5c0-3-2-5-4.7-5c-2.8,0-4.7,2.1-4.7,5c0,2.8,1.9,5,4.7,5
			C190.4,32.5,192.5,30.4,192.5,27.5z"/>
		<path class="st5" d="M204.3,27.3l-6.2-8.8h5.5l3.3,5.2h0.1l3.4-5.2h5.5l-6.2,8.9l6.3,9.2h-5.3l-3.6-5.2H207l-3.7,5.2h-5.2
			L204.3,27.3z"/>
	</g>
</g>
</svg>
