<?xml version="1.0" encoding="utf-8"?>
<!-- Generator: Adobe Illustrator 24.1.3, SVG Export Plug-In . SVG Version: 6.00 Build 0)  -->
<svg version="1.1" id="Слой_1" xmlns="http://www.w3.org/2000/svg" xmlns:xlink="http://www.w3.org/1999/xlink" x="0px" y="0px"
	 viewBox="0 0 126 150" style="enable-background:new 0 0 126 150;" xml:space="preserve">
<style type="text/css">
	.st0{fill:#DEB53A;}
	.st1{fill:#FFFFFF;}
	.st2{fill:#D2D2D2;}
	.st3{fill:#895E08;}
	.st4{fill:#FFC61A;}
	.st5{fill:none;}
	.st6{fill:#167085;}
</style>
<g id="Pasta_1">
	<path id="Layer_1_" d="M90.1,9.1c-4.4-2-9.4-3.5-14.9-4.5l-7-0.9l-8.8,0.5c-4.2-0.3-8.1,0.2-11.9,1.3c-3.7,1.1-7.8,3.1-12.6,5.9
		c-3.7,2.2-7.1,5.4-10.3,9.6c-1.7,2.1-2.9,4-3.7,5.6c-1.1,1.9-2.3,4.5-3.5,8c-2.3,6.9-3.6,14.6-3.8,23.2c0,0.3-1.2,8.1-1.2,8.1
		c-0.5,9.1-2.8,16.6-6.9,22.5c-2,2.9-3.8,4.8-5.4,5.9c3.5,0.1,6.5-0.5,8.9-1.8c1.3-0.6,2.2-1.2,2.7-1.8c-0.7,2.2-2.9,4.8-6.7,7.8
		l-4.7,3.6c3.1,0.4,6.2,0.2,9.3-0.6c2.9-0.8,5.4-2,7.7-3.6c1,5.7,2.3,10.9,4,15.4c2.3,6.3,5,10.6,8.3,13c0.3,0.3,0.4-0.2,0.4-1.3
		l-0.2-2.3l2.6,2.8c1.9,1.9,4.1,3.4,6.6,4.4l3,3l3.6,4.2c3.9,4.5,7.1,7.8,9.6,9.6c2.7,2.1,5.3,3.1,7.7,3c2.2,0,5-1.3,8.5-3.9
		l6.4-5.6l4.2-4.2l5.4-5.8c2.4-1.1,4.5-2.8,6.4-5.1c1.3-1.9,1.9-2.8,2-2.6c0.1,0.5,0.1,1.3-0.1,2.5c-0.3,1.5-0.5,2.5-0.5,3.1
		c2.3-1.5,4.3-3.5,6-5.9l1.8-3.2l0.6,2.1c0.2,0.9,0.4,1.6,0.6,2.1c1.4-2.3,3-5.2,4.7-8.8c3.2-6.8,5-12.6,5.5-17.5
		c0.5-5.4,0.4-10-0.2-13.8c-0.9-3.7-1.5-7-1.8-10.1c1.7,2.4,1.3-17.8,0.9-22.9c-1.1-7.3-2-12.1-2.6-14.4c-1-3.8-2.7-7.8-4.9-11.9
		c-1.7-3.1-3.6-5.6-5.6-7.6C97.2,13.2,93.9,10.9,90.1,9.1z"/>
	<path id="Layer_2_" class="st0" d="M96,42.8c-9.1,4.8-17.8,8.4-26,10.9c-7.1,2.2-10.3,2.8-9.5,1.8l5.2-5.7c2.7-3,3.5-4.2,2.3-3.5
		c-8.2,4.9-17.2,8.7-27.1,11.5c-5,1.4-9.1,2.3-12.4,2.7c-0.5,5.7-0.8,9.7-0.8,12.1c0,2.2,0.1,4.9,0.4,8.1c0.3,2.3,0.8,4.6,1.7,7.1
		l1.5,4.9c0.4,2.3,0.7,6.9,0.9,14c0.2,5.6,0.7,9.6,1.7,11.8c1.3,3,3.9,6.6,7.7,11l7.4,7.8l5.4,5.8c2.8,2.6,5.5,3.9,8.1,3.9
		c1.9,0,4-0.9,6.4-2.7l5.1-4.5c3.5-3.2,6.6-6.4,9.2-9.4c3.5-4,6-7.6,7.2-10.7c0.9-2.1,1.6-6.2,2.1-12.2c0.5-6.2,1.4-11.2,2.8-15.1
		c1.2-3.3,2.1-6.2,2.5-8.9l0.3-2.7c0.4-3.3,0.7-9.5,0.9-18.4l0.2-11.8C99.5,44.2,98.3,41.6,96,42.8z"/>
	<path id="Layer_3_" class="st0" d="M27.2,87.5L25,75.6c-0.6,0.2-1,0.5-1.2,1c-0.5,1.1-0.3,2.9,0.7,5.4
		C25.2,83.8,26.1,85.6,27.2,87.5z"/>
	<path id="Layer_4_" class="st0" d="M22.6,70.6c-1.1-0.7-1.8,0.8-1.9,4.5l0.7,4.4c0.6,3.1,1.2,5.4,1.8,6.9c0.6,1.3,1.7,2.9,3.1,4.6
		l2.1,2l-0.9-4.3c-1.2-1.8-2.2-3.7-3-5.7c-1.3-3.1-1.7-5.2-1-6.5c0.3-0.6,0.8-1,1.5-1.2l-0.6-2.6C23.8,71.6,23.2,70.9,22.6,70.6z"/>
	<path id="Layer_5_" class="st0" d="M101.8,75.6l-2.3,11.8c3.1-5.4,4.3-9,3.4-10.9C102.8,76.2,102.4,75.8,101.8,75.6z"/>
	<path id="Layer_6_" class="st0" d="M104.2,70.6l-1.7,2.1l-0.6,2.6c1,0.3,1.6,1,1.8,2c0.2,1.4-0.3,3.5-1.5,6.3
		c-0.9,2-1.8,3.8-2.8,5.2L98.4,93l2-2c1.5-1.7,2.5-3.2,3.1-4.6c0.9-2.2,1.8-5.9,2.6-11.2C106,71.4,105.3,69.9,104.2,70.6z"/>
	<path id="Layer_7_" d="M61.5,117.2c-6.3-1.1-10.5-1.7-12.4-1.7c-0.5,0-2.8,0.7-7.1,2.1c-4.1,1.4-7.5,2-10,1.6
		c-0.8-0.1,0.9,2.5,5,7.8c4.1,5.5,7.6,9,10.3,10.5c3.1,1.6,5.2,2.6,6.2,3c3.3,1.3,6.4,2,9.3,2c3.4,0.1,7.1-0.8,11-2.7
		c3.7-1.7,6.9-4,9.7-6.8c3.6-3.5,6-6.4,7.3-8.6l-17.2-7.7c-0.9-0.4-3.3-0.5-7-0.2L61.5,117.2z"/>
	<path id="Layer_8_" class="st0" d="M35.4,122l2,2.7c1.7,2.1,3.6,4.1,5.6,5.8c6.5,5.7,13.2,8.5,20.2,8.3c6.2,0,12.3-2.2,18.1-6.6
		c2.9-2.2,5.2-4.3,6.7-6.5l-11.2,0.2l-12.5,2.5c-6.7-1.9-11.5-3.1-14.5-3.7L35.4,122z"/>
	<path id="Layer_9_" class="st0" d="M59.7,119.1c-5.5-1.2-10-1.3-13.7-0.5l-3.8,1.1l-3.7,0.6l25.8,4.7l3.6-0.5l5-0.8l9.6-0.3
		c-5-2.4-8.6-3.9-10.7-4.4c-1.9-0.4-3.9-0.4-6.1,0L59.7,119.1z"/>
	<path id="Layer_10_" class="st0" d="M62.2,125.5l4.1,0l0.4-13.1l-6.1-1.1L62.2,125.5z"/>
	<path id="Layer_11_" d="M57.4,81l1.2,5.7c0.8,4.7,1.2,8.8,1.2,12.3v8.8l-1.4,1.2c-0.9,1-1.3,2.2-1.2,3.5c0.2,1.2,0.7,2.8,1.7,4.8
		l2,4.2c0.7,2.3,1,4.1,1,5.5h5.5l-0.1-4c0-2.8,0.3-4.6,0.9-5.5c0.7-0.9,0.9-2.4,0.8-4.5c-0.2-2.2-0.7-3.8-1.5-4.9l0.7-10.8l0.9-11.7
		v-4.8l-2.3,0.5l0.2,7.5l-1.1,28.6l-0.2,7.6l-2.7,0l-0.6-5.6c-0.4-3.8-0.6-5.9-0.6-6.4c0-12.2-0.3-19.9-0.8-23.2l-0.9-8.5L57.4,81z"
		/>
	<path id="Layer_12_" class="st0" d="M59.8,109.9c-0.7,0.6-1,1.2-1.1,1.9c-0.1,0.5,0.1,1.1,0.3,1.9c0.2,0.8,0.6,1.7,1.2,2.6
		L59.8,109.9z"/>
	<path id="Layer_13_" d="M94,81.4c0.4-3.4-0.8-6.4-3.6-9c-2.7-2.5-5.9-3.7-9.7-3.7c-3.8,0-7,1.2-9.7,3.7c-2.8,2.5-4.2,5.5-4.2,8.8
		c0,3.5,1.4,6.5,4.2,9c2.7,2.3,5.9,3.5,9.7,3.5c3.7,0,6.7-1.2,9.2-3.5C92.3,87.9,93.7,84.9,94,81.4z"/>
	<path id="Layer_14_" class="st1" d="M91.9,80.4c0-3.1-1.1-5.8-3.3-8.1c-2.3-2.2-5-3.3-8.1-3.3c-3.2,0-5.9,1.1-8.2,3.4
		c-2.3,2.2-3.4,4.9-3.4,8.1c0,3.2,1.1,5.8,3.4,8c2.3,2.2,5,3.3,8.2,3.3c3.2,0,5.9-1.1,8.1-3.3C90.8,86.2,91.9,83.5,91.9,80.4z"/>
	<path id="Layer_15_" d="M59,80.8c0-3.5-1.3-6.5-4-9c-2.7-2.5-5.8-3.7-9.5-3.7c-3.7,0-6.8,1.2-9.6,3.7c-2.6,2.5-3.9,5.5-3.9,9
		c0,3.6,1.3,6.6,3.9,9c2.6,2.5,5.8,3.7,9.6,3.7c3.7,0,6.9-1.2,9.5-3.7C57.7,87.4,59,84.3,59,80.8z"/>
	<path id="Layer_16_" class="st1" d="M56.9,80.4c0-3.2-1.1-5.9-3.3-8c-2.2-2.2-4.9-3.3-8.1-3.3c-3.2,0-5.9,1.1-8.1,3.3
		c-2.2,2.1-3.3,4.8-3.3,8c0,3.2,1.1,5.8,3.3,7.9c2.2,2.2,4.9,3.3,8.1,3.3c3.2,0,5.9-1.1,8.1-3.3C55.8,86.2,56.9,83.5,56.9,80.4z"/>
</g>
<g id="Pasta_1_1_">
	<path id="Layer_18_" d="M58.2,64l-7-0.3C45.7,63.9,41,65.1,37,67.3l-0.2,1.2c-2.6,0.8-5,1.3-7,1.5h-2.3l0,1.6h3.2
		c2.7-0.1,5.4-0.6,8.2-1.5c3.9-1.2,8.3-1.5,13.3-1.2c2.5,0.2,4.6,0.4,6.3,0.8L58.2,64z"/>
	<path id="Layer_17_" d="M92.9,62.6l-3.2-0.9l-0.3-1.3c-5.3-1-10.3-1-15.2-0.2l-5.7,1.6l-0.1,5.9c6.8-3.3,14.2-4.4,22.2-3.3
		c4,0.6,7.3,1.5,9.9,2.7l-0.3-1.8C97.9,64.3,95.4,63.4,92.9,62.6z"/>
</g>
<g id="Pasta_1_3_">
	<path id="Layer_40_" d="M94.1,81.4c0.3-3.4-0.9-6.4-3.6-9c-2.7-2.5-6-3.7-9.8-3.7c-3.7,0-7,1.2-9.7,3.7c-2.7,2.5-4.1,5.5-4.1,8.9
		c0,3.5,1.4,6.5,4.1,8.9c2.7,2.4,5.9,3.6,9.7,3.6c3.7,0,6.8-1.2,9.2-3.5C92.3,88,93.7,85,94.1,81.4z"/>
	<path id="Layer_39_" class="st1" d="M91.9,80.4c0-3.1-1.1-5.8-3.4-8.1c-2.3-2.2-5-3.3-8.1-3.3c-3.1,0-5.9,1.1-8.1,3.4
		c-2.3,2.3-3.4,5-3.4,8.1c0,3.1,1.2,5.8,3.4,8c2.3,2.2,5,3.3,8.1,3.3c3.2,0,5.9-1.1,8.1-3.3C90.8,86.2,91.9,83.5,91.9,80.4z"/>
	<path id="Layer_38_" d="M82.2,81.6c0-1.7-0.6-3.1-1.8-4.4c-1.2-1.2-2.7-1.8-4.5-1.8s-3.3,0.6-4.5,1.8c-1.2,1.2-1.8,2.7-1.8,4.4
		c0,1.7,0.6,3.2,1.8,4.4c1.2,1.2,2.7,1.8,4.5,1.8s3.3-0.6,4.5-1.8C81.6,84.8,82.2,83.3,82.2,81.6z"/>
	<path id="Layer_37_" d="M93.3,81.8l2.3,0.4c0-2.4-0.5-4.8-1.6-7.1c-2.3-4.8-6.3-7.1-12.1-7.2c-6.5,0-10.9,2.2-13.3,6.7
		c-1.2,2.2-1.8,4.5-1.7,6.7l3.1-2.4c3-1.6,6.7-2.3,11.3-2.1c2.9,0.1,5.5,0.6,7.8,1.6c1.2,0.6,2.7,1.4,4.3,2.4L93.3,81.8z"/>
	<path id="Layer_36_" class="st0" d="M90.4,76.8c1.3,0.6,2.3,1.1,2.9,1.6c-0.3-1.5-1-3-2.1-4.5c-2.2-3-5.3-4.5-9.2-4.5
		c-4.2,0-7.6,1.4-10.1,3.9c-1.2,1.3-2.1,2.6-2.4,3.8l3.3-1.3c2.8-0.8,5.7-1.2,8.7-1C84.8,75,87.8,75.7,90.4,76.8z"/>
	<path id="Layer_35_" d="M59,80.9c0-3.5-1.3-6.5-4-9c-2.6-2.5-5.8-3.8-9.6-3.8s-6.9,1.2-9.6,3.8c-2.6,2.5-3.9,5.5-3.9,9
		s1.3,6.5,3.9,9c2.7,2.5,5.8,3.7,9.6,3.7c3.7,0,6.9-1.2,9.6-3.7C57.7,87.4,59,84.4,59,80.9z"/>
	<path id="Layer_34_" class="st1" d="M56.9,80.4c0-3.1-1.1-5.8-3.3-8c-2.2-2.2-4.9-3.3-8.1-3.3c-3.2,0-5.9,1.1-8.1,3.3
		c-2.2,2.2-3.3,4.9-3.3,8c0,3.1,1.1,5.7,3.3,7.9c2.2,2.2,4.9,3.3,8.1,3.3c3.1,0,5.8-1.1,8.1-3.3C55.8,86.2,56.9,83.5,56.9,80.4z"/>
	<path id="Layer_33_" d="M47.6,81.6c0-1.7-0.6-3.1-1.8-4.3c-1.2-1.2-2.7-1.8-4.5-1.8s-3.2,0.6-4.5,1.8S35,79.9,35,81.6
		c0,1.7,0.6,3.1,1.8,4.3c1.2,1.2,2.7,1.8,4.5,1.8s3.2-0.6,4.5-1.8C47,84.7,47.6,83.3,47.6,81.6z"/>
	<path id="Layer_32_" d="M33.7,74.6c-1.2,2.2-1.8,4.4-1.7,6.6l3.6-2.3c3.2-1.5,6.7-2.3,10.5-2.3c3.6,0,7,0.9,10.3,2.7
		c1.6,0.9,2.9,1.8,3.8,2.7c0-2.4-0.7-4.8-1.9-7.1c-2.4-4.8-6.5-7.1-12.3-7.1C40.1,67.9,36,70.1,33.7,74.6z"/>
	<path id="Layer_31_" class="st0" d="M54.4,76.2c1.3,0.5,2.3,0.9,3,1.3c-0.4-1.4-1.2-2.7-2.3-4.1c-2.2-2.7-5.1-4.1-8.7-4.1
		c-4.2,0-7.5,1.4-9.8,4.1c-1.2,1.4-1.9,2.7-2.2,4.1l2.8-1.4c2.6-0.9,5.5-1.4,8.7-1.3C48.9,74.9,51.8,75.3,54.4,76.2z"/>
</g>
<path class="st2" d="M7.9,20.3c-0.9,0-1.6,0.7-1.6,1.6v32.2l3.3-2.3V21.9C9.5,21,8.8,20.3,7.9,20.3z"/>
<path class="st3" d="M17.3,46.5L6.2,54.1v27.2h6.7v-9.7c0-2.2-0.7-6.7,3.3-6.7L17.3,46.5z"/>
<path class="st2" d="M118.7,20.3c-0.9,0-1.6,0.7-1.6,1.6v29.9l3.3,2.3V21.9C120.3,21,119.6,20.3,118.7,20.3z"/>
<path class="st3" d="M109.3,46.5l11.1,7.6v27.2h-6.7v-9.7c0-2.2,0.7-6.7-3.3-6.7L109.3,46.5z"/>
<path class="st4" d="M16.1,65c-4,0-3.3,4.5-3.3,6.7v16.8c0.2,2,1.9,3.5,3.9,3.5h1.5V65L16.1,65z"/>
<path class="st5" d="M0,0h126v150H0V0z"/>
<path class="st6" d="M102.6,59.2c-1.9,0.1-3.6,1-4.6,2.6c-0.1,6.6-0.4,14.9-0.9,19.6c0,1-0.1,2-0.3,3v8c0,2.3,2.4,5.8,5.4,5.8
	c3.3,0,6-2.5,6.2-5.8V64.6C108.4,61.5,106.5,59.2,102.6,59.2z"/>
<path class="st6" d="M28.2,81.4c-0.6-6.6-0.6-8.1,0.3-19.9c-1.1-1.5-2.9-2.3-4.7-2.3c-2.9-0.2-5.3,2-5.5,4.9c0,0.2,0,0.4,0,0.6v27.7
	c0.3,3.2,3,5.7,6.2,5.8c3,0,5.4-3.5,5.4-5.8v-3.6C29,86.3,28.4,83.9,28.2,81.4z"/>
<path class="st4" d="M110.4,65h-2v27h1.3c2,0,3.7-1.6,3.9-3.6V71.6C113.7,69.5,114.4,65,110.4,65z"/>
<path class="st4" d="M109.3,46.5l7.8,5.4c-2.5-25.1-10.7-33.3-20.2-40.4C87.4,4.6,76,1.3,64.2,1h-0.9h-0.9
	C50.5,1.3,39.1,4.5,29.8,11.5C20.2,18.6,12,26.7,9.5,51.9l7.8-5.4c0.3-2.3,0.8-4.6,1.3-6.9c3.6-10.8,9.5-17.9,16-22.6
	C45,9.4,56.8,8,63.3,7.9C69.8,8,81.6,9.4,92,17c6.5,4.7,12.4,11.9,16,22.7C108.6,41.9,109,44.2,109.3,46.5L109.3,46.5z"/>
</svg>
